<svg width="394" height="67" viewBox="0 0 394 67" fill="none" xmlns="http://www.w3.org/2000/svg">
<path d="M98.8751 35.772C98.2991 35.772 97.8191 35.508 97.4351 34.98C97.0511 34.428 96.8351 33.768 96.7871 33C96.7871 32.328 97.0031 31.8 97.4351 31.416C97.8911 31.032 98.4311 30.708 99.0551 30.444C100.495 29.82 101.947 29.388 103.411 29.148C104.875 28.908 106.339 28.788 107.803 28.788C108.883 28.836 109.963 28.944 111.043 29.112C112.147 29.256 113.131 29.508 113.995 29.868C114.859 30.228 115.555 30.708 116.083 31.308C116.635 31.908 116.911 32.688 116.911 33.648C116.887 34.128 116.743 34.476 116.479 34.692C116.239 34.908 115.879 35.04 115.399 35.088C114.943 35.088 114.475 35.004 113.995 34.836C113.515 34.644 113.011 34.476 112.483 34.332C111.691 34.116 110.899 33.96 110.107 33.864C109.339 33.768 108.559 33.72 107.767 33.72C106.327 33.72 104.923 33.888 103.555 34.224C102.211 34.536 100.879 35.004 99.5591 35.628C99.3431 35.724 99.1151 35.772 98.8751 35.772ZM115.075 28.464C114.763 28.464 114.439 28.368 114.103 28.176L112.015 26.916C110.551 26.076 109.051 25.464 107.515 25.08C106.003 24.696 104.431 24.504 102.799 24.504C102.199 24.504 101.599 24.528 100.999 24.576C100.423 24.624 99.8231 24.708 99.1991 24.828L98.9111 24.864C98.3111 24.864 97.8551 24.612 97.5431 24.108C97.2551 23.604 97.1111 23.064 97.1111 22.488C97.1111 21.912 97.2311 21.408 97.4711 20.976C97.7351 20.52 98.1431 20.196 98.6951 20.004C99.3671 19.788 100.051 19.656 100.747 19.608C101.467 19.536 102.139 19.5 102.763 19.5C104.491 19.5 106.183 19.692 107.839 20.076C109.519 20.46 111.031 21 112.375 21.696C112.903 21.96 113.419 22.248 113.923 22.56C114.451 22.872 114.907 23.22 115.291 23.604C115.675 23.964 115.987 24.372 116.227 24.828C116.467 25.26 116.587 25.752 116.587 26.304C116.587 26.808 116.467 27.3 116.227 27.78C116.011 28.236 115.627 28.464 115.075 28.464ZM99.4151 46.068C99.1031 46.068 98.8031 45.984 98.5151 45.816C98.2271 45.624 97.9631 45.396 97.7231 45.132C97.5071 44.868 97.3271 44.568 97.1831 44.232C97.0631 43.896 97.0031 43.572 97.0031 43.26C97.0031 42.756 97.1591 42.312 97.4711 41.928C97.8071 41.544 98.1791 41.184 98.5871 40.848C99.4271 40.176 100.339 39.576 101.323 39.048C102.307 38.52 103.303 38.064 104.311 37.68C105.343 37.296 106.363 36.996 107.371 36.78C108.403 36.564 109.375 36.444 110.287 36.42L111.511 36.384C111.919 36.384 112.339 36.408 112.771 36.456C113.203 36.48 113.635 36.552 114.067 36.672C115.411 37.032 116.275 37.92 116.659 39.336C116.683 39.432 116.695 39.552 116.695 39.696C116.695 40.08 116.551 40.416 116.263 40.704C115.975 40.992 115.615 41.136 115.183 41.136H112.555C110.659 41.136 108.847 41.412 107.119 41.964C105.415 42.492 103.771 43.284 102.187 44.34C101.683 44.7 101.203 45.084 100.747 45.492C100.315 45.876 99.8711 46.068 99.4151 46.068ZM140.838 33C141.006 32.28 141.078 31.56 141.054 30.84C140.982 29.616 140.73 28.788 140.298 28.356C139.89 27.924 139.398 27.756 138.822 27.852C138.27 27.948 137.694 28.248 137.094 28.752C136.518 29.256 136.014 29.844 135.582 30.516C135.03 31.356 134.574 32.304 134.214 33.36C133.854 34.392 133.59 35.46 133.422 36.564C133.278 37.668 133.218 38.772 133.242 39.876C133.29 40.956 133.422 41.94 133.638 42.828C133.878 43.884 134.226 44.736 134.682 45.384C135.162 46.032 135.666 46.464 136.194 46.68C136.746 46.896 137.298 46.884 137.85 46.644C138.402 46.38 138.894 45.864 139.326 45.096C139.854 44.184 140.154 43.284 140.226 42.396C140.298 41.508 140.31 40.572 140.262 39.588C140.238 39.18 140.286 38.856 140.406 38.616C140.526 38.376 140.754 38.196 141.09 38.076C141.474 38.028 141.786 38.052 142.026 38.148C142.266 38.244 142.446 38.4 142.566 38.616C142.71 38.808 142.806 39.036 142.854 39.3C142.926 39.564 142.974 39.84 142.998 40.128C143.094 40.896 143.142 41.664 143.142 42.432C143.166 43.176 143.094 43.92 142.926 44.664C142.782 45.384 142.518 46.092 142.134 46.788C141.774 47.46 141.27 48.12 140.622 48.768C139.518 49.728 138.402 50.328 137.274 50.568C136.17 50.784 135.114 50.724 134.106 50.388C133.098 50.052 132.186 49.464 131.37 48.624C130.554 47.784 129.918 46.776 129.462 45.6C129.054 44.64 128.754 43.524 128.562 42.252C128.394 40.956 128.358 39.612 128.454 38.22C128.574 36.804 128.826 35.4 129.21 34.008C129.594 32.616 130.134 31.32 130.83 30.12C131.262 29.376 131.766 28.692 132.342 28.068C132.942 27.444 133.59 26.904 134.286 26.448C135.006 25.992 135.75 25.644 136.518 25.404C137.31 25.164 138.114 25.056 138.93 25.08C139.626 25.104 140.286 25.26 140.91 25.548C141.558 25.836 142.086 26.304 142.494 26.952C143.142 28.032 143.454 29.22 143.43 30.516C143.406 31.788 143.202 32.964 142.818 34.044C142.362 35.436 141.426 36.24 140.01 36.456C139.002 36.528 138.246 36.168 137.742 35.376C137.214 34.512 137.178 33.636 137.634 32.748C137.778 32.508 137.97 32.352 138.21 32.28C138.45 32.184 138.678 32.16 138.894 32.208C139.134 32.256 139.326 32.376 139.47 32.568C139.638 32.76 139.71 33 139.686 33.288C139.614 33.744 139.626 34.02 139.722 34.116C139.818 34.212 139.938 34.212 140.082 34.116C140.226 33.996 140.37 33.828 140.514 33.612C140.682 33.396 140.79 33.192 140.838 33ZM152.346 43.26C152.202 43.524 152.058 43.788 151.914 44.052C151.794 44.292 151.674 44.544 151.554 44.808C151.266 45.384 150.906 45.804 150.474 46.068C150.066 46.332 149.634 46.464 149.178 46.464C148.722 46.464 148.266 46.356 147.81 46.14C147.378 45.9 146.994 45.576 146.658 45.168C146.058 44.424 145.674 43.632 145.506 42.792C145.362 41.928 145.35 41.04 145.47 40.128C145.566 39.456 145.746 38.772 146.01 38.076C146.298 37.356 146.646 36.696 147.054 36.096C147.486 35.472 147.978 34.944 148.53 34.512C149.106 34.056 149.742 33.756 150.438 33.612C150.894 33.516 151.374 33.492 151.878 33.54C152.382 33.588 152.946 33.72 153.57 33.936C153.954 33 154.41 32.16 154.938 31.416C155.25 31.008 155.586 30.696 155.946 30.48C156.33 30.24 156.798 30.228 157.35 30.444C157.758 30.66 158.046 30.96 158.214 31.344C158.406 31.728 158.454 32.124 158.358 32.532C158.166 34.284 157.95 36.024 157.71 37.752C157.494 39.48 157.29 41.208 157.098 42.936C157.05 43.32 157.014 43.704 156.99 44.088C156.966 44.472 156.93 44.844 156.882 45.204C156.762 46.356 156.234 47.028 155.298 47.22C154.746 47.316 154.29 47.232 153.93 46.968C153.57 46.704 153.282 46.356 153.066 45.924C152.85 45.492 152.694 45.036 152.598 44.556C152.502 44.052 152.418 43.62 152.346 43.26ZM149.322 44.16C149.994 43.032 150.534 41.904 150.942 40.776C151.374 39.648 151.83 38.508 152.31 37.356C151.734 37.452 151.206 37.752 150.726 38.256C150.246 38.736 149.85 39.312 149.538 39.984C149.25 40.656 149.07 41.376 148.998 42.144C148.926 42.888 149.034 43.56 149.322 44.16ZM167.981 30.372C168.317 30.468 168.701 30.516 169.133 30.516C169.565 30.516 170.069 30.576 170.645 30.696C170.933 30.792 171.137 30.936 171.257 31.128C171.401 31.32 171.461 31.524 171.437 31.74C171.437 31.956 171.353 32.16 171.185 32.352C171.017 32.52 170.789 32.628 170.501 32.676C170.237 32.724 169.925 32.748 169.565 32.748C169.229 32.748 168.617 32.772 167.729 32.82C167.537 33.804 167.381 34.896 167.261 36.096C167.141 37.296 167.069 38.508 167.045 39.732C167.045 40.932 167.105 42.108 167.225 43.26C167.345 44.412 167.561 45.432 167.873 46.32C168.041 46.848 168.053 47.304 167.909 47.688C167.789 48.072 167.573 48.36 167.261 48.552C166.973 48.744 166.625 48.84 166.217 48.84C165.833 48.84 165.449 48.72 165.065 48.48C164.321 47.976 163.709 47.304 163.229 46.464C162.773 45.6 162.413 44.664 162.149 43.656C161.909 42.648 161.753 41.604 161.681 40.524C161.609 39.444 161.585 38.424 161.609 37.464C161.657 36.48 161.717 35.604 161.789 34.836C161.885 34.068 161.969 33.492 162.041 33.108C161.777 33.108 161.573 33.108 161.429 33.108C161.309 33.108 161.225 33.108 161.177 33.108C161.129 33.108 161.093 33.108 161.069 33.108C161.045 33.108 161.009 33.108 160.961 33.108C160.169 33.036 159.773 32.664 159.773 31.992C159.725 31.608 159.833 31.344 160.097 31.2C160.385 31.032 160.697 30.912 161.033 30.84C161.321 30.768 161.597 30.732 161.861 30.732C162.149 30.708 162.425 30.672 162.689 30.624C162.809 30.12 162.977 29.556 163.193 28.932C163.409 28.284 163.661 27.66 163.949 27.06C164.261 26.46 164.585 25.92 164.921 25.44C165.281 24.96 165.665 24.624 166.073 24.432C166.601 24.168 167.105 24.156 167.585 24.396C168.065 24.612 168.353 25.008 168.449 25.584C168.497 25.944 168.509 26.34 168.485 26.772C168.461 27.204 168.425 27.636 168.377 28.068C168.329 28.5 168.257 28.92 168.161 29.328C168.089 29.712 168.029 30.06 167.981 30.372ZM172.512 34.44C172.512 33.864 172.5 33.396 172.476 33.036C172.476 32.652 172.464 32.268 172.44 31.884C172.44 31.5 172.44 31.056 172.44 30.552C172.464 30.048 172.5 29.376 172.548 28.536C172.284 28.56 172.128 28.572 172.08 28.572C172.056 28.548 171.924 28.56 171.684 28.608C171.516 28.584 171.36 28.584 171.216 28.608C171.096 28.608 170.964 28.584 170.82 28.536C170.604 28.488 170.412 28.38 170.244 28.212C170.076 28.02 170.004 27.816 170.028 27.6C170.028 27.24 170.112 26.964 170.28 26.772C170.472 26.556 170.7 26.388 170.964 26.268C171.228 26.148 171.504 26.064 171.792 26.016C172.08 25.944 172.344 25.884 172.584 25.836C173.52 25.62 174.564 25.428 175.716 25.26C176.868 25.068 178.02 24.948 179.172 24.9C180.324 24.852 181.416 24.912 182.448 25.08C183.48 25.224 184.344 25.524 185.04 25.98C185.304 26.148 185.472 26.364 185.544 26.628C185.64 26.892 185.664 27.156 185.616 27.42C185.52 27.684 185.34 27.9 185.076 28.068C184.836 28.212 184.548 28.26 184.212 28.212C182.988 28.02 181.752 27.948 180.504 27.996C179.28 28.044 178.08 28.104 176.904 28.176C176.928 28.944 176.952 29.508 176.976 29.868C177 30.228 177.024 30.552 177.048 30.84C177.072 31.128 177.096 31.464 177.12 31.848C177.144 32.208 177.168 32.796 177.192 33.612C178.152 33.612 179.028 33.576 179.82 33.504C180.612 33.432 181.428 33.336 182.268 33.216C182.34 33.168 182.424 33.168 182.52 33.216C183.072 33.144 183.468 33.36 183.708 33.864C183.78 34.056 183.78 34.272 183.708 34.512C183.636 34.752 183.48 34.92 183.24 35.016C182.928 35.184 182.616 35.316 182.304 35.412C181.992 35.508 181.668 35.58 181.332 35.628C180.708 35.724 180.072 35.796 179.424 35.844C178.8 35.892 178.128 35.952 177.408 36.024C177.456 36.864 177.504 37.836 177.552 38.94C177.624 40.044 177.684 41.148 177.732 42.252C177.78 43.356 177.828 44.388 177.876 45.348C177.924 46.284 177.96 47.016 177.984 47.544C178.008 47.952 177.984 48.396 177.912 48.876C177.84 49.308 177.672 49.668 177.408 49.956C177.168 50.244 176.844 50.424 176.436 50.496C175.932 50.592 175.488 50.568 175.104 50.424C174.744 50.256 174.432 50.028 174.168 49.74C173.904 49.452 173.688 49.128 173.52 48.768C173.376 48.408 173.268 48.072 173.196 47.76C173.124 47.472 173.052 47.04 172.98 46.464C172.932 45.888 172.884 45.24 172.836 44.52C172.812 43.8 172.788 43.044 172.764 42.252C172.74 41.46 172.716 40.704 172.692 39.984C172.692 39.24 172.68 38.58 172.656 38.004C172.656 37.404 172.656 36.948 172.656 36.636C172.488 36.636 172.32 36.636 172.152 36.636C172.008 36.636 171.852 36.624 171.684 36.6C170.988 36.6 170.616 36.324 170.568 35.772C170.544 35.532 170.616 35.304 170.784 35.088C170.952 34.872 171.192 34.728 171.504 34.656C171.696 34.608 171.864 34.572 172.008 34.548C172.176 34.524 172.344 34.488 172.512 34.44ZM191.845 36.564C191.269 37.26 190.837 37.908 190.549 38.508C190.285 39.084 190.105 39.684 190.009 40.308C189.937 40.908 189.925 41.544 189.973 42.216C190.021 42.864 190.081 43.584 190.153 44.376C190.153 44.616 190.153 44.856 190.153 45.096C190.177 45.312 190.165 45.516 190.117 45.708C190.045 46.068 189.889 46.344 189.649 46.536C189.433 46.704 189.193 46.812 188.929 46.86C188.665 46.908 188.389 46.884 188.101 46.788C187.813 46.692 187.561 46.548 187.345 46.356C187.129 46.14 186.949 45.888 186.805 45.6C186.661 45.312 186.541 45 186.445 44.664C186.181 43.824 185.965 42.864 185.797 41.784C185.629 40.704 185.533 39.612 185.509 38.508C185.509 37.404 185.605 36.348 185.797 35.34C185.989 34.308 186.325 33.408 186.805 32.64C187.045 32.208 187.345 31.92 187.705 31.776C188.089 31.632 188.461 31.62 188.821 31.74C189.541 32.004 189.865 32.616 189.793 33.576C189.793 33.696 189.781 33.828 189.757 33.972C189.757 34.092 189.757 34.272 189.757 34.512C190.021 34.272 190.261 34.08 190.477 33.936C190.717 33.768 190.945 33.612 191.161 33.468C191.521 33.18 191.905 33 192.313 32.928C192.745 32.832 193.153 32.844 193.537 32.964C193.921 33.06 194.257 33.276 194.545 33.612C194.857 33.948 195.073 34.392 195.193 34.944C195.313 35.592 195.361 36.252 195.337 36.924C195.337 37.572 195.337 38.208 195.337 38.832C195.289 39.408 194.965 39.792 194.365 39.984C193.693 40.152 193.201 39.984 192.889 39.48C192.577 39.024 192.349 38.556 192.205 38.076C192.061 37.572 191.941 37.068 191.845 36.564ZM202.759 38.148C202.759 39.516 202.699 40.836 202.579 42.108C202.483 43.38 202.351 44.688 202.183 46.032C202.135 46.68 201.991 47.244 201.751 47.724C201.511 48.18 201.211 48.528 200.851 48.768C200.515 48.984 200.131 49.068 199.699 49.02C199.291 48.948 198.895 48.696 198.511 48.264C198.007 47.664 197.671 46.92 197.503 46.032C197.359 45.144 197.335 44.22 197.431 43.26C197.527 42.276 197.719 41.316 198.007 40.38C198.295 39.42 198.643 38.58 199.051 37.86C199.339 37.332 199.687 36.936 200.095 36.672C200.527 36.384 200.935 36.252 201.319 36.276C201.727 36.276 202.063 36.432 202.327 36.744C202.615 37.032 202.759 37.5 202.759 38.148ZM204.667 31.776C204.595 32.76 204.223 33.6 203.551 34.296C203.287 34.584 202.975 34.776 202.615 34.872C202.279 34.968 201.943 34.992 201.607 34.944C201.295 34.872 201.007 34.728 200.743 34.512C200.479 34.296 200.287 34.008 200.167 33.648C200.023 33.216 199.951 32.772 199.951 32.316C199.975 31.86 200.083 31.416 200.275 30.984C200.539 30.48 200.911 30.132 201.391 29.94C201.895 29.724 202.387 29.652 202.867 29.724C203.347 29.796 203.767 30.012 204.127 30.372C204.487 30.708 204.667 31.176 204.667 31.776ZM209.047 41.028C208.951 41.604 208.951 42.192 209.047 42.792C209.167 43.392 209.323 43.884 209.515 44.268C209.707 44.628 209.935 44.82 210.199 44.844C210.463 44.868 210.715 44.592 210.955 44.016C211.075 43.584 211.183 43.2 211.279 42.864C211.375 42.504 211.483 42.084 211.603 41.604C211.675 41.316 211.819 41.1 212.035 40.956C212.251 40.812 212.467 40.752 212.683 40.776C212.899 40.8 213.079 40.908 213.223 41.1C213.391 41.268 213.451 41.52 213.403 41.856C213.355 42.264 213.295 42.696 213.223 43.152C213.151 43.608 213.055 44.04 212.935 44.448C212.647 45.384 212.203 46.092 211.603 46.572C211.003 47.052 210.355 47.316 209.659 47.364C208.987 47.412 208.327 47.256 207.679 46.896C207.031 46.536 206.503 45.972 206.095 45.204C205.735 44.556 205.483 43.812 205.339 42.972C205.195 42.132 205.135 41.28 205.159 40.416C205.207 39.528 205.315 38.676 205.483 37.86C205.675 37.02 205.915 36.276 206.203 35.628C206.539 34.812 207.043 34.128 207.715 33.576C208.411 33.024 209.179 32.724 210.019 32.676C210.451 32.676 210.835 32.76 211.171 32.928C211.507 33.072 211.795 33.288 212.035 33.576C212.275 33.84 212.467 34.14 212.611 34.476C212.779 34.812 212.899 35.136 212.971 35.448C213.115 36.144 213.127 36.84 213.007 37.536C212.887 38.208 212.647 38.808 212.287 39.336C211.951 39.864 211.507 40.296 210.955 40.632C210.403 40.944 209.767 41.076 209.047 41.028ZM209.227 38.796C209.779 38.796 210.223 38.652 210.559 38.364C210.919 38.076 211.159 37.74 211.279 37.356C211.423 36.948 211.447 36.54 211.351 36.132C211.279 35.724 211.087 35.4 210.775 35.16C210.127 36.168 209.611 37.38 209.227 38.796ZM222.163 35.808C223.411 34.872 224.551 34.524 225.583 34.764C226.615 34.98 227.479 35.808 228.175 37.248C228.439 37.8 228.667 38.34 228.859 38.868C229.075 39.396 229.291 39.912 229.507 40.416C229.747 40.896 230.011 41.352 230.299 41.784C230.611 42.216 231.007 42.612 231.487 42.972C231.847 43.164 232.123 43.452 232.315 43.836C232.507 44.22 232.507 44.604 232.315 44.988C232.123 45.324 231.883 45.552 231.595 45.672C231.307 45.768 230.995 45.804 230.659 45.78C229.771 45.708 229.015 45.444 228.391 44.988C227.791 44.532 227.275 43.992 226.843 43.368C226.411 42.72 226.039 42.036 225.727 41.316C225.439 40.572 225.163 39.888 224.899 39.264C224.755 38.904 224.563 38.736 224.323 38.76C224.083 38.76 223.819 38.868 223.531 39.084C223.243 39.276 222.955 39.54 222.667 39.876C222.403 40.188 222.175 40.476 221.983 40.74C221.719 41.148 221.455 41.544 221.191 41.928C220.951 42.288 220.699 42.66 220.435 43.044C219.859 43.836 219.271 44.352 218.671 44.592C218.095 44.832 217.567 44.856 217.087 44.664C216.607 44.472 216.211 44.088 215.899 43.512C215.611 42.912 215.455 42.156 215.431 41.244C215.383 39.924 215.407 38.604 215.503 37.284C215.623 35.94 215.959 34.704 216.511 33.576C216.727 33.216 216.991 32.976 217.303 32.856C217.615 32.712 217.927 32.676 218.239 32.748C218.575 32.796 218.863 32.928 219.103 33.144C219.343 33.336 219.499 33.588 219.571 33.9C219.619 34.14 219.631 34.44 219.607 34.8C219.583 35.16 219.571 35.46 219.571 35.7C219.619 36.564 219.679 37.128 219.751 37.392C219.847 37.632 219.991 37.704 220.183 37.608C220.375 37.488 220.627 37.248 220.939 36.888C221.251 36.528 221.659 36.168 222.163 35.808ZM242.009 43.512C241.841 43.848 241.685 44.196 241.541 44.556C241.397 44.892 241.241 45.228 241.073 45.564C240.761 46.116 240.401 46.536 239.993 46.824C239.585 47.088 239.153 47.232 238.697 47.256C238.241 47.28 237.785 47.172 237.329 46.932C236.897 46.692 236.501 46.308 236.141 45.78C235.709 45.18 235.373 44.472 235.133 43.656C234.917 42.84 234.773 42 234.701 41.136C234.653 40.272 234.677 39.42 234.773 38.58C234.869 37.716 235.025 36.948 235.241 36.276C235.529 35.46 235.949 34.776 236.501 34.224C237.077 33.672 237.713 33.3 238.409 33.108C239.105 32.916 239.825 32.904 240.569 33.072C241.337 33.216 242.045 33.576 242.693 34.152C242.765 33.48 242.885 32.7 243.053 31.812C243.221 30.9 243.425 29.976 243.665 29.04C243.929 28.104 244.241 27.18 244.601 26.268C244.985 25.332 245.429 24.492 245.933 23.748C246.221 23.34 246.581 23.064 247.013 22.92C247.469 22.752 247.889 22.704 248.273 22.776C248.681 22.848 249.017 23.04 249.281 23.352C249.545 23.664 249.641 24.072 249.569 24.576C249.497 25.272 249.413 25.956 249.317 26.628C249.245 27.276 249.149 27.936 249.029 28.608C248.765 30.384 248.549 32.124 248.381 33.828C248.237 35.532 248.129 37.224 248.057 38.904C247.985 40.56 247.937 42.216 247.913 43.872C247.889 45.504 247.865 47.136 247.841 48.768C247.841 49.488 247.625 50.04 247.193 50.424C246.761 50.808 246.209 50.964 245.537 50.892C244.505 50.82 243.857 50.364 243.593 49.524C243.449 49.068 243.305 48.576 243.161 48.048C243.017 47.52 242.885 46.992 242.765 46.464C242.645 45.936 242.525 45.42 242.405 44.916C242.285 44.412 242.153 43.944 242.009 43.512ZM238.877 44.772C239.453 43.812 239.945 42.852 240.353 41.892C240.761 40.908 241.181 39.936 241.613 38.976C241.757 38.64 241.733 38.232 241.541 37.752C241.349 37.272 241.085 36.864 240.749 36.528C240.413 36.168 240.053 35.952 239.669 35.88C239.309 35.808 239.033 36 238.841 36.456C238.577 37.032 238.397 37.692 238.301 38.436C238.205 39.156 238.157 39.888 238.157 40.632C238.181 41.376 238.253 42.108 238.373 42.828C238.493 43.548 238.661 44.196 238.877 44.772ZM262.967 42.144C262.967 43.008 262.811 43.812 262.499 44.556C262.187 45.3 261.767 45.96 261.239 46.536C260.711 47.088 260.099 47.532 259.403 47.868C258.707 48.204 257.975 48.408 257.207 48.48C256.583 48.528 255.935 48.48 255.263 48.336C254.591 48.168 253.967 47.916 253.391 47.58C252.839 47.22 252.383 46.776 252.023 46.248C251.687 45.72 251.531 45.096 251.555 44.376C251.627 43.872 251.771 43.5 251.987 43.26C252.227 43.02 252.479 42.9 252.743 42.9C253.007 42.876 253.235 42.96 253.427 43.152C253.643 43.32 253.763 43.548 253.787 43.836C253.811 44.412 253.955 44.832 254.219 45.096C254.483 45.336 254.807 45.468 255.191 45.492C255.599 45.492 256.019 45.396 256.451 45.204C256.907 45.012 257.327 44.76 257.711 44.448C258.095 44.112 258.419 43.74 258.683 43.332C258.947 42.924 259.103 42.504 259.151 42.072C259.199 41.376 259.043 40.884 258.683 40.596C258.347 40.308 257.843 40.224 257.171 40.344C256.835 40.416 256.487 40.488 256.127 40.56C255.767 40.632 255.419 40.692 255.083 40.74C254.387 40.86 253.739 40.836 253.139 40.668C252.563 40.476 252.071 40.188 251.663 39.804C251.255 39.396 250.967 38.904 250.799 38.328C250.655 37.752 250.667 37.116 250.835 36.42C251.027 35.604 251.351 34.824 251.807 34.08C252.263 33.312 252.815 32.64 253.463 32.064C254.111 31.488 254.819 31.032 255.587 30.696C256.355 30.36 257.159 30.216 257.999 30.264C258.431 30.288 258.863 30.384 259.295 30.552C259.727 30.72 260.099 30.948 260.411 31.236C260.723 31.5 260.951 31.824 261.095 32.208C261.239 32.592 261.227 33.024 261.059 33.504C260.867 33.984 260.615 34.296 260.303 34.44C259.991 34.584 259.631 34.536 259.223 34.296C258.575 33.84 258.023 33.684 257.567 33.828C257.111 33.972 256.679 34.32 256.271 34.872C255.671 35.64 255.443 36.252 255.587 36.708C255.731 37.164 256.139 37.332 256.811 37.212C257.699 37.068 258.527 37.032 259.295 37.104C260.063 37.152 260.711 37.356 261.239 37.716C261.791 38.076 262.211 38.616 262.499 39.336C262.811 40.056 262.967 40.992 262.967 42.144ZM294.391 35.772C294.151 35.772 293.923 35.724 293.707 35.628C292.339 34.98 290.995 34.5 289.675 34.188C288.355 33.876 286.963 33.72 285.499 33.72C284.707 33.72 283.915 33.768 283.123 33.864C282.355 33.96 281.575 34.116 280.783 34.332C280.255 34.476 279.751 34.644 279.271 34.836C278.791 35.004 278.323 35.088 277.867 35.088C277.339 35.04 276.955 34.908 276.715 34.692C276.499 34.476 276.391 34.092 276.391 33.54C276.391 32.604 276.667 31.848 277.219 31.272C277.771 30.672 278.479 30.204 279.343 29.868C280.231 29.508 281.215 29.256 282.295 29.112C283.375 28.944 284.431 28.836 285.463 28.788C286.927 28.788 288.391 28.908 289.855 29.148C291.319 29.388 292.771 29.82 294.211 30.444C294.835 30.708 295.363 31.032 295.795 31.416C296.251 31.8 296.479 32.328 296.479 33C296.431 33.768 296.215 34.428 295.831 34.98C295.447 35.508 294.967 35.772 294.391 35.772ZM278.191 28.464C277.639 28.464 277.243 28.236 277.003 27.78C276.787 27.3 276.679 26.808 276.679 26.304C276.679 25.752 276.799 25.26 277.039 24.828C277.279 24.372 277.591 23.964 277.975 23.604C278.359 23.22 278.803 22.872 279.307 22.56C279.811 22.248 280.339 21.96 280.891 21.696C282.235 21 283.735 20.46 285.391 20.076C287.071 19.692 288.775 19.5 290.503 19.5C291.127 19.5 291.787 19.536 292.483 19.608C293.203 19.656 293.899 19.788 294.571 20.004C295.123 20.196 295.519 20.52 295.759 20.976C296.023 21.408 296.155 21.912 296.155 22.488C296.155 23.064 295.999 23.604 295.687 24.108C295.399 24.612 294.955 24.864 294.355 24.864L294.067 24.828C293.443 24.708 292.831 24.624 292.231 24.576C291.655 24.528 291.067 24.504 290.467 24.504C288.835 24.504 287.251 24.696 285.715 25.08C284.203 25.464 282.715 26.076 281.251 26.916L279.163 28.176C278.851 28.344 278.551 28.44 278.263 28.464H278.191ZM293.851 46.068C293.395 46.068 292.939 45.876 292.483 45.492C292.051 45.084 291.583 44.7 291.079 44.34C289.495 43.284 287.839 42.492 286.111 41.964C284.407 41.412 282.607 41.136 280.711 41.136H278.083C277.651 41.136 277.291 40.992 277.003 40.704C276.715 40.416 276.571 40.08 276.571 39.696C276.571 39.552 276.583 39.432 276.607 39.336C276.991 37.92 277.855 37.032 279.199 36.672C279.631 36.552 280.063 36.48 280.495 36.456C280.927 36.408 281.347 36.384 281.755 36.384L282.979 36.42C283.891 36.444 284.851 36.564 285.859 36.78C286.891 36.996 287.911 37.296 288.919 37.68C289.951 38.064 290.959 38.52 291.943 39.048C292.927 39.576 293.839 40.176 294.679 40.848C295.111 41.184 295.483 41.556 295.795 41.964C296.107 42.348 296.263 42.78 296.263 43.26C296.263 43.572 296.191 43.896 296.047 44.232C295.927 44.568 295.747 44.868 295.507 45.132C295.291 45.396 295.039 45.624 294.751 45.816C294.463 45.984 294.163 46.068 293.851 46.068Z" fill="black"/>
</svg>
